<mxfile host="app.diagrams.net" modified="2024-04-02T18:23:49.134Z" agent="Mozilla/5.0 (Windows NT 10.0; Win64; x64) AppleWebKit/537.36 (KHTML, like Gecko) Chrome/123.0.0.0 Safari/537.36" version="24.2.1" etag="Qs7J0qIVRq_g96P1wTma" type="github">
  <diagram name="PÃ¡gina-1" id="AtoTwLzHvThy1imQe9qj">
    <mxGraphModel>
      <root>
        <mxCell id="0" />
        <mxCell id="1" parent="0" />
      </root>
    </mxGraphModel>
  </diagram>
</mxfile>
